<?xml version="1.0" standalone="no"?>
<!DOCTYPE svg PUBLIC "-//W3C//DTD SVG 20010904//EN"
 "http://www.w3.org/TR/2001/REC-SVG-20010904/DTD/svg10.dtd">
<svg version="1.0" xmlns="http://www.w3.org/2000/svg"
 width="700.000000pt" height="700.000000pt" viewBox="0 0 700.000000 700.000000"
 preserveAspectRatio="xMidYMid meet">
<metadata>
Created by potrace 1.11, written by Peter Selinger 2001-2013
</metadata>
<g transform="translate(0.000000,700.000000) scale(0.100000,-0.100000)"
fill="#000000" stroke="none">
<path d="M1048 5988 c-125 -11 -243 -37 -583 -129 -165 -44 -311 -83 -325 -86
-14 -2 -29 -8 -33 -12 -5 -5 24 -130 63 -277 40 -148 78 -291 85 -319 8 -27
26 -95 41 -150 14 -55 27 -106 27 -112 0 -7 10 -13 21 -14 61 -1 127 -9 206
-24 45 -9 154 -51 218 -86 227 -121 386 -320 452 -563 11 -42 29 -111 41 -153
11 -43 23 -85 25 -93 2 -8 24 -91 49 -185 80 -299 97 -360 100 -375 2 -8 59
-217 126 -465 130 -484 138 -521 140 -635 4 -289 -153 -586 -396 -749 l-71
-47 18 -70 c10 -38 20 -77 23 -86 2 -10 15 -59 29 -110 14 -51 32 -120 41
-153 23 -86 23 -84 41 -150 9 -33 17 -67 19 -75 2 -8 10 -40 19 -71 9 -31 18
-65 20 -75 3 -11 9 -31 14 -45 6 -15 8 -30 4 -34 -4 -4 2 -5 13 -2 227 66 568
148 680 163 28 4 59 8 70 10 43 8 216 17 325 17 279 0 499 -34 810 -128 156
-47 323 -90 380 -98 19 -3 67 -10 107 -16 659 -99 1376 83 1939 490 533 386
889 942 1019 1594 43 215 54 345 50 585 -3 210 -20 353 -61 538 -196 880 -866
1620 -1734 1915 -274 93 -514 132 -825 132 -205 0 -298 -7 -457 -36 -543 -96
-1039 -351 -1419 -729 -124 -123 -189 -196 -189 -213 0 -9 23 -100 89 -347 17
-63 43 -160 57 -215 14 -55 28 -107 30 -115 4 -10 12 -4 26 20 130 214 214
326 348 461 529 533 1301 752 2006 569 510 -132 957 -448 1248 -884 151 -226
279 -552 311 -793 2 -12 6 -34 9 -50 17 -90 24 -381 12 -492 -46 -396 -152
-695 -354 -1001 -170 -257 -413 -483 -683 -636 -180 -101 -479 -212 -644 -237
-16 -3 -41 -8 -55 -11 -147 -34 -450 -39 -654 -11 -85 12 -229 47 -421 104
-201 59 -335 91 -475 111 -41 7 -86 13 -99 15 -115 19 -475 25 -639 12 -96 -8
-268 -32 -362 -52 -36 -7 -66 -12 -68 -10 -2 2 5 11 16 21 10 11 43 51 74 89
97 124 166 253 222 415 81 239 100 459 60 710 -6 37 -50 207 -138 530 -29 109
-55 207 -81 305 -14 55 -32 123 -40 150 -8 28 -47 172 -85 320 -39 149 -75
281 -80 295 -4 14 -23 81 -40 150 -40 158 -70 240 -132 362 -160 315 -499 609
-815 706 l-58 18 84 23 c47 13 96 25 110 27 14 3 33 7 41 9 8 2 42 7 75 11
169 19 322 6 485 -40 61 -17 60 -17 176 -71 l81 -38 144 145 c79 80 170 166
202 193 l58 48 -43 29 c-70 47 -275 144 -383 181 -99 34 -252 71 -330 81 -22
2 -62 8 -90 11 -76 10 -220 11 -317 3z"/>
<path d="M3265 4265 c-39 -64 -140 -237 -354 -609 l-241 -418 35 -39 c19 -21
42 -47 52 -57 34 -35 391 -407 438 -457 202 -213 452 -471 621 -645 111 -113
244 -249 296 -302 52 -54 97 -98 99 -98 6 0 169 163 265 265 26 28 155 163
288 300 132 138 286 297 341 354 55 57 125 130 155 161 30 31 147 152 260 269
113 118 212 221 221 230 16 15 7 33 -113 241 -72 124 -140 243 -153 265 -12
22 -72 126 -133 230 -60 105 -123 213 -138 240 -16 28 -34 59 -41 70 -11 18
-36 19 -948 19 -927 1 -938 1 -950 -19z m1587 -548 c10 -12 31 -47 48 -77 43
-78 80 -143 134 -234 26 -43 45 -82 44 -87 -3 -8 -102 -111 -458 -479 -125
-129 -267 -277 -316 -328 l-90 -93 -209 217 c-116 120 -265 274 -331 344 -269
277 -324 335 -324 343 0 4 44 83 97 175 53 92 106 184 117 204 l21 37 145 3
c80 2 361 2 625 0 l480 -2 17 -23z"/>
</g>
</svg>
